<?xml version="1.0" encoding="UTF-8"?>
<svg width="40px" height="40px" viewBox="0 0 40 40" version="1.1" xmlns="http://www.w3.org/2000/svg" xmlns:xlink="http://www.w3.org/1999/xlink">
    <!-- Generator: Sketch 51.3 (57544) - http://www.bohemiancoding.com/sketch -->
    <title>ic_facebook_white</title>
    <desc>Created with Sketch.</desc>
    <defs></defs>
    <g id="ic_facebook_white" stroke="none" stroke-width="1" fill="none" fill-rule="evenodd">
        <path d="M29.771085,1.00790654 L24.8433361,1 C19.3071793,1 15.7294716,4.67060953 15.7294716,10.3518513 L15.7294716,14.6636809 L10.7748406,14.6636809 C10.3467016,14.6636809 10,15.0107779 10,15.4389168 L10,21.6862666 C10,22.1144055 10.3470969,22.4611071 10.7748406,22.4611071 L15.7294716,22.4611071 L15.7294716,38.2251594 C15.7294716,38.6532984 16.0761732,39 16.5043122,39 L22.9686964,39 C23.3968353,39 23.7435369,38.6529031 23.7435369,38.2251594 L23.7435369,22.4611071 L29.5366562,22.4611071 C29.9647951,22.4611071 30.3114967,22.1144055 30.3114967,21.6862666 L30.3138687,15.4389168 C30.3138687,15.2333469 30.232036,15.0364741 30.0869511,14.8909938 C29.9418662,14.7455136 29.7442027,14.6636809 29.5386328,14.6636809 L23.7435369,14.6636809 L23.7435369,11.0084891 C23.7435369,9.25165673 24.162188,8.35979942 26.450735,8.35979942 L29.7702943,8.35861344 C30.1980379,8.35861344 30.5447396,8.01151649 30.5447396,7.58377287 L30.5447396,1.78274711 C30.5447396,1.35539881 30.1984333,1.00869719 29.771085,1.00790654 Z" id="Shape" fill="#FFFFFF" fill-rule="nonzero"></path>
    </g>
</svg>