<?xml version="1.0" encoding="UTF-8"?>
<svg width="40px" height="40px" viewBox="0 0 40 40" version="1.1" xmlns="http://www.w3.org/2000/svg" xmlns:xlink="http://www.w3.org/1999/xlink">
    <!-- Generator: Sketch 51.3 (57544) - http://www.bohemiancoding.com/sketch -->
    <title>ic_google</title>
    <desc>Created with Sketch.</desc>
    <defs></defs>
    <g id="ic_google" stroke="none" stroke-width="1" fill="none" fill-rule="evenodd">
        <path d="M14.0110675,22.4569063 L20.2501961,22.4569063 C19.1550327,25.5532026 16.1889325,27.773159 12.716427,27.7475381 C8.50300654,27.716427 5.01908497,24.3457952 4.85551198,20.1354248 C4.68017429,15.6222222 8.30100218,11.8946405 12.7759477,11.8946405 C14.8220479,11.8946405 16.6892375,12.6742484 18.0969063,13.9517211 C18.4303268,14.2543791 18.9378649,14.2562963 19.2657952,13.9476253 L21.5573856,11.7908497 C21.9157298,11.4535076 21.917037,10.8838344 21.5597386,10.5453595 C19.3273203,8.43041394 16.3326362,7.11215686 13.0302397,7.04766885 C5.98657952,6.91015251 0.0494117647,12.6852288 0.000348583878,19.7301089 C-0.0491503268,26.8278867 5.6896732,32.5971242 12.7759477,32.5971242 C19.5906754,32.5971242 25.1577342,27.2612636 25.5306318,20.5397821 C25.5405664,20.455512 25.5471024,17.6074946 25.5471024,17.6074946 L14.0110675,17.6074946 C13.5382135,17.6074946 13.1549455,17.9907625 13.1549455,18.4636166 L13.1549455,21.6007843 C13.1549455,22.0736383 13.5383007,22.4569063 14.0110675,22.4569063 Z" id="Shape" fill="#000000" fill-rule="nonzero"></path>
        <path d="M36.1188671,17.8923747 L36.1188671,14.8271895 C36.1188671,14.4128105 35.7830065,14.0769499 35.3686275,14.0769499 L32.7887582,14.0769499 C32.3743791,14.0769499 32.0385185,14.4128105 32.0385185,14.8271895 L32.0385185,17.8923747 L28.9733333,17.8923747 C28.5589542,17.8923747 28.2230937,18.2282353 28.2230937,18.6426144 L28.2230937,21.2224837 C28.2230937,21.6368627 28.5589542,21.9727233 28.9733333,21.9727233 L32.0385185,21.9727233 L32.0385185,25.0379085 C32.0385185,25.4522876 32.3743791,25.7881481 32.7887582,25.7881481 L35.3686275,25.7881481 C35.7830065,25.7881481 36.1188671,25.4522876 36.1188671,25.0379085 L36.1188671,21.9727233 L39.1840523,21.9727233 C39.5984314,21.9727233 39.9342919,21.6368627 39.9342919,21.2224837 L39.9342919,18.6426144 C39.9342919,18.2282353 39.5984314,17.8923747 39.1840523,17.8923747 L36.1188671,17.8923747 Z" id="Shape" fill="#000000" fill-rule="nonzero"></path>
    </g>
</svg>