<?xml version="1.0" encoding="UTF-8"?>
<svg width="40px" height="40px" viewBox="0 0 40 40" version="1.1" xmlns="http://www.w3.org/2000/svg" xmlns:xlink="http://www.w3.org/1999/xlink">
    <!-- Generator: Sketch 51.3 (57544) - http://www.bohemiancoding.com/sketch -->
    <title>ic_hatena_white</title>
    <desc>Created with Sketch.</desc>
    <defs></defs>
    <g id="ic_hatena_white" stroke="none" stroke-width="1" fill="none" fill-rule="evenodd">
        <path d="M5,0 L35,0 C37.7614237,-5.07265313e-16 40,2.23857625 40,5 L40,35 C40,37.7614237 37.7614237,40 35,40 L5,40 C2.23857625,40 3.38176876e-16,37.7614237 0,35 L0,5 C-3.38176876e-16,2.23857625 2.23857625,5.07265313e-16 5,0 Z M22.256,20.648 C21.5306667,19.8373333 20.5226667,19.384 19.232,19.288 C20.384,18.976 21.216,18.52 21.744,17.904 C22.272,17.288 22.528,16.48 22.528,15.448 C22.5412106,14.6919697 22.3593631,13.9452928 22,13.28 C21.6364795,12.6507014 21.104519,12.1353646 20.464,11.792 C19.88,11.472 19.184,11.24 18.368,11.104 C17.552,10.968 16.12,10.912 14.072,10.912 L9.088,10.912 L9.088,29.088 L14.224,29.088 C16.288,29.088 17.776,29.0186667 18.688,28.88 C19.6,28.736 20.36,28.496 20.976,28.168 C21.7171393,27.7840983 22.3270866,27.1880768 22.728,26.456 C23.136,25.72 23.344,24.864 23.344,23.888 C23.344,22.536 22.984,21.456 22.256,20.648 Z M13.696,14.936 L14.76,14.936 C15.992,14.936 16.8186667,15.0746667 17.24,15.352 C17.664,15.632 17.872,16.112 17.872,16.792 C17.872,17.472 17.64,17.912 17.192,18.184 C16.744,18.456 15.904,18.584 14.68,18.584 L13.696,18.584 L13.696,14.936 Z M17.92,25.36 C17.432,25.656 16.6,25.8 15.432,25.8 L13.696,25.8 L13.696,21.84 L15.504,21.84 C16.704,21.84 17.536,21.992 17.976,22.296 C18.416,22.6 18.648,23.128 18.648,23.896 C18.648,24.664 18.408,25.072 17.912,25.368 L17.92,25.36 Z M28.608,24.488 C27.3355359,24.488 26.304,25.5195359 26.304,26.792 C26.304,28.0644641 27.3355359,29.096 28.608,29.096 C29.8804641,29.096 30.912,28.0644641 30.912,26.792 C30.912,25.5195359 29.8804641,24.488 28.608,24.488 Z M26.608,10.912 L26.608,23.0336 L30.608,23.0336 L30.608,10.912 L26.608,10.912 Z" id="Combined-Shape" fill="#FFFFFF" fill-rule="nonzero"></path>
    </g>
</svg>