<?xml version="1.0" encoding="UTF-8"?>
<svg width="40px" height="40px" viewBox="0 0 40 40" version="1.1" xmlns="http://www.w3.org/2000/svg" xmlns:xlink="http://www.w3.org/1999/xlink">
    <!-- Generator: Sketch 51.3 (57544) - http://www.bohemiancoding.com/sketch -->
    <title>ic_instagram</title>
    <desc>Created with Sketch.</desc>
    <defs></defs>
    <g id="ic_instagram" stroke="none" stroke-width="1" fill="none" fill-rule="evenodd">
        <path d="M28.0346377,0 L11.8953623,0 C5.33623188,0 0,5.33623188 0,11.8953623 L0,28.0346377 C0,34.5937681 5.33623188,39.93 11.8953623,39.93 L28.0346377,39.93 C34.5937681,39.93 39.93,34.5937681 39.93,28.0346377 L39.93,11.8953623 C39.9299275,5.33623188 34.5936957,0 28.0346377,0 Z M35.9130435,28.0346377 C35.9130435,32.3857246 32.3857246,35.9130435 28.0346377,35.9130435 L11.8953623,35.9130435 C7.54427536,35.9130435 4.01695652,32.3857246 4.01695652,28.0346377 L4.01695652,11.8953623 C4.01695652,7.5442029 7.54427536,4.01695652 11.8953623,4.01695652 L28.0346377,4.01695652 C32.3857246,4.01695652 35.9130435,7.5442029 35.9130435,11.8953623 L35.9130435,28.0346377 Z" id="Shape" fill="#000000" fill-rule="nonzero"></path>
        <path d="M19.965,9.63768116 C14.2705072,9.63768116 9.63768116,14.2705072 9.63768116,19.9649275 C9.63768116,25.6593478 14.2705072,30.2922464 19.965,30.2922464 C25.6594928,30.2922464 30.2923188,25.6594203 30.2923188,19.9649275 C30.2923188,14.2704348 25.6594928,9.63768116 19.965,9.63768116 Z M19.965,26.2753623 C16.4798551,26.2753623 13.6546377,23.4501449 13.6546377,19.965 C13.6546377,16.4798551 16.4799275,13.6546377 19.965,13.6546377 C23.4501449,13.6546377 26.2753623,16.4798551 26.2753623,19.965 C26.2753623,23.4500725 23.4500725,26.2753623 19.965,26.2753623 Z" id="Shape" fill="#000000" fill-rule="nonzero"></path>
        <circle id="Oval" fill="#000000" fill-rule="nonzero" cx="30.3123188" cy="9.71521739" r="2.47463768"></circle>
    </g>
</svg>