<?xml version="1.0" encoding="UTF-8"?>
<svg width="40px" height="40px" viewBox="0 0 40 40" version="1.1" xmlns="http://www.w3.org/2000/svg" xmlns:xlink="http://www.w3.org/1999/xlink">
    <!-- Generator: Sketch 51.3 (57544) - http://www.bohemiancoding.com/sketch -->
    <title>ic_line_white</title>
    <desc>Created with Sketch.</desc>
    <defs></defs>
    <g id="ic_line_white" stroke="none" stroke-width="1" fill="none" fill-rule="evenodd">
        <path d="M40,17.1769706 C40,8.24546006 31.0297483,1 20,1 C8.97025172,1 0,8.24546006 0,17.1769706 C0,25.1515335 7.09382151,31.8501664 16.7048055,33.1260965 C17.3455378,33.2628033 18.2608696,33.5362169 18.4439359,34.128613 C18.6270023,34.6298712 18.5812357,35.404543 18.4897025,35.9513702 C18.4897025,35.9513702 18.2608696,37.3640071 18.215103,37.6374207 C18.1235698,38.1386789 17.8032037,39.5968847 19.9542334,38.731075 C22.1052632,37.8196964 31.4874142,31.9868732 35.6521739,27.1565665 C38.5812357,23.9211724 40,20.7313472 40,17.1769706 Z M12.9519451,21.9161394 C12.9519451,22.1439841 12.7688787,22.3262598 12.5858124,22.3262598 L7.00228833,22.3262598 C6.91075515,22.3262598 6.81922197,22.2806909 6.72768879,22.2351219 C6.72768879,22.2351219 6.72768879,22.2351219 6.72768879,22.2351219 C6.72768879,22.2351219 6.72768879,22.2351219 6.72768879,22.2351219 C6.6819222,22.1439841 6.63615561,22.0528462 6.63615561,21.9617083 L6.63615561,13.3036114 C6.63615561,13.0757668 6.81922197,12.893491 7.04805492,12.893491 L8.46681922,12.893491 C8.69565217,12.893491 8.87871854,13.0757668 8.87871854,13.3036114 L8.87871854,20.18452 L12.6773455,20.18452 C12.9061785,20.18452 13.0434783,20.3667957 13.0434783,20.5946404 L13.0434783,21.9161394 L12.9519451,21.9161394 Z M16.2929062,21.9161394 C16.2929062,22.1439841 16.1098398,22.2806909 15.8810069,22.2806909 L14.4622426,22.2806909 C14.2334096,22.2806909 14.0503432,22.0984151 14.0503432,21.9161394 L14.0503432,13.2580425 C14.0503432,13.0301978 14.2334096,12.893491 14.4622426,12.893491 L15.8810069,12.893491 C16.1098398,12.893491 16.2929062,13.0757668 16.2929062,13.2580425 L16.2929062,21.9161394 Z M25.9496568,21.9161394 C25.9496568,22.1439841 25.7665904,22.2806909 25.5377574,22.2806909 L24.1189931,22.2806909 C24.0732265,22.2806909 24.0732265,22.2806909 24.02746,22.2806909 C24.02746,22.2806909 24.02746,22.2806909 24.02746,22.2806909 C24.02746,22.2806909 24.02746,22.2806909 23.9816934,22.2806909 C23.9816934,22.2806909 23.9816934,22.2806909 23.9816934,22.2806909 C23.9816934,22.2806909 23.9816934,22.2806909 23.9816934,22.2806909 C23.9816934,22.2806909 23.9816934,22.2806909 23.9816934,22.2806909 C23.9816934,22.2806909 23.9816934,22.2806909 23.9816934,22.2806909 C23.9816934,22.2806909 23.9816934,22.2806909 23.9359268,22.2806909 C23.9359268,22.2806909 23.9359268,22.2806909 23.9359268,22.2806909 C23.8901602,22.2351219 23.8443936,22.2351219 23.8443936,22.189553 L19.8627002,16.8124191 L19.8627002,21.9617083 C19.8627002,22.189553 19.6796339,22.3262598 19.4508009,22.3262598 L18.0778032,22.3262598 C17.8489703,22.3262598 17.6659039,22.1439841 17.6659039,21.9617083 L17.6659039,13.3036114 C17.6659039,13.0757668 17.8489703,12.93906 18.0778032,12.93906 L19.4965675,12.93906 C19.4965675,12.93906 19.4965675,12.93906 19.4965675,12.93906 C19.4965675,12.93906 19.4965675,12.93906 19.4965675,12.93906 C19.4965675,12.93906 19.4965675,12.93906 19.4965675,12.93906 C19.4965675,12.93906 19.4965675,12.93906 19.4965675,12.93906 C19.4965675,12.93906 19.4965675,12.93906 19.4965675,12.93906 C19.4965675,12.93906 19.4965675,12.93906 19.4965675,12.93906 C19.4965675,12.93906 19.4965675,12.93906 19.5423341,12.93906 C19.5423341,12.93906 19.5423341,12.93906 19.5423341,12.93906 C19.5423341,12.93906 19.5423341,12.93906 19.5423341,12.93906 C19.5423341,12.93906 19.5423341,12.93906 19.5423341,12.93906 C19.5423341,12.93906 19.5423341,12.93906 19.5423341,12.93906 C19.5423341,12.93906 19.5423341,12.93906 19.5423341,12.93906 C19.5423341,12.93906 19.5423341,12.93906 19.5423341,12.93906 C19.5423341,12.93906 19.5423341,12.93906 19.5423341,12.93906 C19.5423341,12.93906 19.5423341,12.93906 19.5423341,12.93906 C19.5423341,12.93906 19.5423341,12.93906 19.5423341,12.93906 C19.5423341,12.93906 19.5423341,12.93906 19.5881007,12.9846289 C19.5881007,12.9846289 19.5881007,12.9846289 19.5881007,12.9846289 C19.5881007,12.9846289 19.5881007,13.0301978 19.6338673,13.0301978 L23.6155606,18.4073317 L23.6155606,13.2580425 C23.6155606,13.0301978 23.798627,12.893491 24.02746,12.893491 L25.4462243,12.893491 C25.6750572,12.893491 25.8581236,13.0757668 25.8581236,13.2580425 L25.8581236,21.9161394 L25.9496568,21.9161394 Z M33.7299771,14.6251104 C33.7299771,14.8529551 33.5469108,15.0352308 33.3638444,15.0352308 L29.5194508,15.0352308 L29.5194508,16.4934366 L33.3180778,16.4934366 C33.5469108,16.4934366 33.6842105,16.6757123 33.6842105,16.903557 L33.6842105,18.3161938 C33.6842105,18.5440385 33.5011442,18.7263142 33.3180778,18.7263142 L29.5194508,18.7263142 L29.5194508,20.18452 L33.3180778,20.18452 C33.5469108,20.18452 33.6842105,20.3667957 33.6842105,20.5946404 L33.6842105,22.0072773 C33.6842105,22.2351219 33.5011442,22.4173976 33.3180778,22.4173976 L27.7345538,22.4173976 C27.6430206,22.4173976 27.5514874,22.3718287 27.4599542,22.3262598 C27.4599542,22.3262598 27.4599542,22.3262598 27.4599542,22.3262598 C27.4599542,22.3262598 27.4599542,22.3262598 27.4599542,22.3262598 C27.4141876,22.2351219 27.3684211,22.1439841 27.3684211,22.0528462 L27.3684211,13.3947493 C27.3684211,13.3036114 27.4141876,13.2124736 27.4599542,13.1213357 C27.4599542,13.1213357 27.4599542,13.1213357 27.4599542,13.1213357 C27.4599542,13.1213357 27.4599542,13.1213357 27.4599542,13.1213357 C27.5514874,13.0757668 27.6430206,13.0301978 27.7345538,13.0301978 L33.3180778,13.0301978 C33.5469108,13.0301978 33.6842105,13.2124736 33.6842105,13.4403182 L33.6842105,14.6251104 L33.7299771,14.6251104 Z" id="Shape" fill="#FFFFFF" fill-rule="nonzero"></path>
    </g>
</svg>