<?xml version="1.0" encoding="UTF-8"?>
<svg width="40px" height="40px" viewBox="0 0 40 40" version="1.1" xmlns="http://www.w3.org/2000/svg" xmlns:xlink="http://www.w3.org/1999/xlink">
    <!-- Generator: Sketch 51.3 (57544) - http://www.bohemiancoding.com/sketch -->
    <title>ic_twitter</title>
    <desc>Created with Sketch.</desc>
    <defs></defs>
    <g id="ic_twitter" stroke="none" stroke-width="1" fill="none" fill-rule="evenodd">
        <path d="M40,7.84425465 C38.5277754,8.49660865 36.9480996,8.93902768 35.2883583,9.13654434 C36.983067,8.12170608 38.280324,6.51203025 38.8951616,4.59987026 C37.3054858,5.53967572 35.550777,6.22209513 33.6811008,6.59203038 C32.1839088,4.99483823 30.0542975,4 27.6922021,4 C23.1605607,4 19.486241,7.67431973 19.486241,12.2034775 C19.486241,12.8458314 19.5587248,13.4732181 19.698725,14.0731537 C12.880021,13.7306695 6.8336713,10.4638014 2.78693266,5.49967565 C2.07954588,6.70948155 1.67712692,8.11915706 1.67712692,9.62393076 C1.67712692,12.4709289 3.12686785,14.9829591 5.32647929,16.4526347 C3.98170585,16.4076673 2.71693254,16.0377321 1.60967583,15.4228291 L1.60967583,15.5253129 C1.60967583,19.4995678 4.43915758,22.816436 8.19092842,23.5713392 C7.50354167,23.7563068 6.77870389,23.8587906 6.02883338,23.8587906 C5.49896323,23.8587906 4.9865441,23.8063069 4.48412497,23.7063067 C5.52889792,26.9682075 8.55838,29.3402375 12.1477323,29.4052703 C9.34073422,31.6048817 5.80138203,32.9121387 1.95712738,32.9121387 C1.29477336,32.9121387 0.642353991,32.8721387 0,32.7996549 C3.631836,35.1317502 7.94354239,36.491491 12.5776676,36.491491 C27.6723328,36.491491 35.9233267,23.9887908 35.9233267,13.1458319 L35.8958103,12.0835426 C37.5079698,10.9336715 38.9026779,9.48896322 40,7.84425465 Z" id="Shape" fill="#000000" fill-rule="nonzero"></path>
    </g>
</svg>